<svg width="273" height="532" viewBox="0 0 273 532" fill="none" xmlns="http://www.w3.org/2000/svg">
<path d="M0 0H30V393.5C30 401.784 23.2843 408.5 15 408.5C6.71573 408.5 0 401.784 0 393.5V0Z" fill="#915217" fill-opacity="0.9"/>
<path d="M49 0H78V286.045C78 294.054 71.5081 300.545 63.5 300.545C55.4919 300.545 49 294.054 49 286.045V0Z" fill="#FC5353" fill-opacity="0.9"/>
<path d="M97 0H127V517C127 525.284 120.284 532 112 532C103.716 532 97 525.284 97 517V0Z" fill="#FE7A41" fill-opacity="0.9"/>
<path d="M146 0H176V393.5C176 401.784 169.284 408.5 161 408.5C152.716 408.5 146 401.784 146 393.5V0Z" fill="#51D34A" fill-opacity="0.9"/>
<path d="M195 0H224V319.727C224 327.735 217.508 334.227 209.5 334.227C201.492 334.227 195 327.735 195 319.727V0Z" fill="#09C7DE" fill-opacity="0.9"/>
<path d="M243 0H273V466.045C273 474.33 266.284 481.045 258 481.045C249.716 481.045 243 474.33 243 466.045V0Z" fill="#FA8CC8" fill-opacity="0.9"/>
</svg>
