<svg width="450" height="244" viewBox="0 0 450 244" fill="none" xmlns="http://www.w3.org/2000/svg">
<path d="M5.99982 182.062C11.8058 150.466 41.0721 81.973 109.295 91.4363C117.198 60.7719 160.586 15.8421 239.363 27.6916C318.141 39.541 341.487 92.6519 339.81 123.411C372.134 125.27 417.684 155.104 416.037 238.939" stroke="#FD81C3" stroke-width="10" stroke-linecap="round"/>
<path d="M50.1526 188.671C54.4004 165.554 78.316 121.459 139.996 130.015C145.782 107.58 171.797 64.882 229.567 73.5701C287.338 82.2582 299.339 129.442 298.119 151.948C321.822 153.315 368.933 171.385 367.751 232.725" stroke="#FF7A41" stroke-width="10" stroke-linecap="round"/>
<path d="M100.446 195.646C103.341 179.889 122.909 166.791 165.145 172.65C169.094 157.357 185.215 114.423 224.774 120.37C264.333 126.317 260.735 170.452 259.912 185.795C276.142 186.737 322.493 186.702 321.718 228.52" stroke="#8A0404" stroke-width="10" stroke-linecap="round"/>
</svg>
