<svg width="222" height="35" viewBox="0 0 222 35" fill="none" xmlns="http://www.w3.org/2000/svg">
<rect x="122.497" y="0.00488281" width="6.06419" height="34.4446" rx="3.0321" fill="#4FD348" fill-opacity="0.9"/>
<path fill-rule="evenodd" clip-rule="evenodd" d="M133.413 14.0738C133.413 14.0738 133.413 14.0738 133.413 14.0738C134.1 13.9929 135.353 13.8263 136.202 12.4971C137.094 11.0999 137.023 10.1876 136.93 9.34371C136.808 8.2473 136.445 7.40316 135.353 6.67546C134.48 6.09331 133.655 6.02861 133.413 6.06903C133.413 6.06904 133.413 6.06903 133.413 6.06901C133.413 6.069 133.413 6.06899 133.412 6.06899L123.103 6.06899C121.429 6.06899 120.071 4.71148 120.071 3.0369C120.071 1.36232 121.429 0.00480074 123.103 0.00480072L133.412 0.0048006C133.413 0.0048006 133.413 0.00481081 133.413 0.00482339C133.413 0.00483638 133.413 0.00484679 133.413 0.00484621C135.232 -0.0759992 139.38 0.829616 141.417 4.61365C143.964 9.34371 142.758 12.4971 141.66 15.1653C140.811 17.2271 137.657 20.138 133.413 20.138C133.413 20.138 133.413 20.138 133.413 20.1379C133.413 20.1379 133.413 20.1379 133.412 20.1379H125.529C123.854 20.1379 122.497 18.7804 122.497 17.1058C122.497 15.4312 123.854 14.0737 125.529 14.0737H133.412C133.413 14.0737 133.413 14.0737 133.413 14.0738Z" fill="#4FD348" fill-opacity="0.8"/>
<rect y="0.000366211" width="6.06419" height="34.4446" rx="3.0321" fill="#884100" fill-opacity="0.9"/>
<rect x="16.98" width="6.06419" height="34.4446" rx="3.0321" fill="#884100" fill-opacity="0.9"/>
<rect y="14.3115" width="23.0439" height="5.82162" fill="#884100" fill-opacity="0.8"/>
<rect x="163.248" y="12.6135" width="6.06419" height="21.8311" rx="3.0321" fill="#05C7DE" fill-opacity="0.9"/>
<rect x="163.248" width="6.06419" height="6.06419" rx="3.0321" fill="#05C7DE" fill-opacity="0.9"/>
<rect x="42.4492" y="12.6135" width="6.06419" height="21.8311" rx="3.0321" fill="#884100" fill-opacity="0.8"/>
<path fill-rule="evenodd" clip-rule="evenodd" d="M37.5982 34.4447C43.6266 34.4447 48.5137 29.5577 48.5137 23.5292C48.5137 17.5007 43.6266 12.6136 37.5982 12.6136C31.5697 12.6136 26.6826 17.5007 26.6826 23.5292C26.6826 29.5577 31.5697 34.4447 37.5982 34.4447ZM37.598 28.3804C40.2773 28.3804 42.4493 26.2084 42.4493 23.529C42.4493 20.8497 40.2773 18.6777 37.598 18.6777C34.9186 18.6777 32.7466 20.8497 32.7466 23.529C32.7466 26.2084 34.9186 28.3804 37.598 28.3804Z" fill="#884100" fill-opacity="0.9"/>
<rect x="110.611" y="12.6135" width="6.06419" height="21.8311" rx="3.0321" fill="#FF783E" fill-opacity="0.8"/>
<path fill-rule="evenodd" clip-rule="evenodd" d="M105.76 34.4446C111.788 34.4446 116.675 29.5576 116.675 23.5291C116.675 17.5006 111.788 12.6135 105.76 12.6135C99.7313 12.6135 94.8442 17.5006 94.8442 23.5291C94.8442 29.5576 99.7313 34.4446 105.76 34.4446ZM105.76 28.3804C108.439 28.3804 110.611 26.2084 110.611 23.529C110.611 20.8497 108.439 18.6777 105.76 18.6777C103.081 18.6777 100.909 20.8497 100.909 23.529C100.909 26.2084 103.081 28.3804 105.76 28.3804Z" fill="#FF783E" fill-opacity="0.9"/>
<rect x="188.718" width="6.06419" height="34.4446" rx="3.0321" fill="#FF75C0" fill-opacity="0.8"/>
<path fill-rule="evenodd" clip-rule="evenodd" d="M183.866 34.4446C189.895 34.4446 194.782 29.5576 194.782 23.5291C194.782 17.5006 189.895 12.6135 183.866 12.6135C177.838 12.6135 172.951 17.5006 172.951 23.5291C172.951 29.5576 177.838 34.4446 183.866 34.4446ZM183.866 28.3804C186.546 28.3804 188.718 26.2084 188.718 23.529C188.718 20.8497 186.546 18.6777 183.866 18.6777C181.187 18.6777 179.015 20.8497 179.015 23.529C179.015 26.2084 181.187 28.3804 183.866 28.3804Z" fill="#FF75C0" fill-opacity="0.9"/>
<rect x="73.7407" width="6.06419" height="34.4446" rx="3.0321" fill="#FF4242" fill-opacity="0.9"/>
<path d="M85.3841 16.0094V15.1605C85.3841 15.1605 85.3841 12.0071 88.3556 12.0071C91.327 12.0071 91.327 15.1605 91.327 15.1605V16.3733C91.327 18.896 89.8716 20.9821 89.1439 21.7098C90.8904 23.2622 91.327 25.8334 91.327 26.925V31.8976C91.327 31.8976 91.327 34.5659 88.2949 34.5659C85.2628 34.5659 85.2628 31.8976 85.2628 31.8976V27.0463C85.2224 26.2377 84.6079 24.6206 82.4733 24.6206C80.3387 24.6206 79.7242 26.1569 79.6838 26.925V31.7763C79.6838 31.7763 79.5627 34.4446 76.773 34.5659C73.9833 34.6872 73.7407 31.8976 73.7407 31.8976V27.0463C73.7407 23.7716 75.4389 21.9524 76.773 20.7395C78.6034 19.0755 80.2902 18.6777 82.9585 18.6777C84.899 18.4836 85.3841 16.818 85.3841 16.0094Z" fill="#FF4242" fill-opacity="0.8"/>
<rect x="146.027" y="12.6135" width="6.06419" height="21.8311" rx="3.0321" fill="#05C7DE" fill-opacity="0.9"/>
<path fill-rule="evenodd" clip-rule="evenodd" d="M157.443 13.3069C156.544 12.9451 155.435 12.6934 154.152 12.7348C150.392 12.8561 148.087 16.0095 147.36 17.3436C146.632 18.6777 146.147 20.3757 146.026 22.3162C145.992 22.8495 146.454 23.1213 147.159 23.2272C146.468 23.7829 146.026 24.6352 146.026 25.5908V31.4124C146.026 33.087 147.383 34.4445 149.058 34.4445C150.732 34.4445 152.09 33.087 152.09 31.4124V25.5908C152.09 24.4737 151.486 23.4977 150.586 22.9717C151.494 22.6426 152.09 21.7418 152.09 20.7395C152.09 20.0927 152.502 18.7747 154.152 18.6777C154.368 18.6467 154.596 18.6277 154.825 18.6084C155.597 18.5436 156.395 18.4767 156.908 17.9487L157.815 17.0149C158.971 15.8244 158.983 13.9266 157.443 13.3069Z" fill="#05C7DE" fill-opacity="0.8"/>
<path fill-rule="evenodd" clip-rule="evenodd" d="M67.5062 33.5043C66.1501 34.1087 64.648 34.4446 63.0674 34.4446C57.0389 34.4446 52.1519 29.5576 52.1519 23.5291C52.1519 17.5006 57.0389 12.6135 63.0674 12.6135C64.7702 12.6135 66.382 13.0034 67.8183 13.6989L67.7974 13.705C68.8081 14.271 69.738 16.1307 68.4038 17.7074C67.8496 18.3623 67.3276 18.6845 66.4633 18.9202C65.6213 19.1498 64.9726 18.993 64.3647 18.8461C64.0093 18.7602 63.6679 18.6777 63.3099 18.6777L63.3122 18.6837C63.2311 18.6797 63.1495 18.6777 63.0673 18.6777C60.388 18.6777 58.216 20.8497 58.216 23.529C58.216 26.2084 60.388 28.3804 63.0673 28.3804C63.148 28.3804 63.2283 28.3784 63.308 28.3745L63.31 28.3804C63.8006 28.3804 64.1872 28.2701 64.5549 28.1653C65.0054 28.0368 65.4276 27.9164 65.9782 28.0165C67.3123 28.2591 67.9314 28.9646 68.2826 29.4719C69.3741 31.0486 68.7677 32.7466 67.5549 33.4743C67.5379 33.4845 67.5217 33.4945 67.5062 33.5043Z" fill="#FF4242" fill-opacity="0.9"/>
<rect x="218.476" y="16.9792" width="5.3057" height="22.0863" rx="2.65285" transform="rotate(67.6079 218.476 16.9792)" fill="#FF75C0" fill-opacity="0.8"/>
<path fill-rule="evenodd" clip-rule="evenodd" d="M213.565 20.2968L213.55 20.2939C212.694 19.2551 211.42 18.559 209.976 18.4501C209.134 18.3054 208.15 18.3763 207.153 18.9203C205.701 19.7124 205.064 20.7738 204.831 21.6007C204.607 22.1608 204.485 22.7703 204.485 23.4078C204.485 26.1541 206.765 28.3805 209.578 28.3805C210.77 28.3805 211.865 27.9814 212.733 27.3127C213.376 26.9794 213.92 26.6055 214.264 26.3331L218.14 30.7533C215.922 32.9703 212.583 34.2021 209.336 34.2021C203.307 34.2021 198.42 29.315 198.42 23.2865C198.42 17.258 203.307 12.371 209.336 12.371C214.777 12.371 218.977 17.213 220.292 21.6345L220.281 21.6321L220.373 21.8309L215.4 23.8928C215.4 23.8928 215.279 23.2865 214.672 22.0737C214.276 21.2806 213.827 20.6431 213.565 20.2968Z" fill="#FF75C0" fill-opacity="0.9"/>
<path d="M219.766 20.1331C220.057 21.5886 219.16 22.3567 218.675 22.5588V23.893L221.828 22.6801L221.949 19.8906C221.1 19.365 219.475 18.6777 219.766 20.1331Z" fill="#EDDFD3"/>
<path d="M215.666 28.1112C214.361 26.9626 212.556 27.4586 211.816 27.8501L212.664 26.0228L214.883 26.1533L218.179 28.5027L218.668 31.8962C216.493 32.5923 212.501 33.8606 213.937 33.3646C215.732 32.7446 216.123 31.9941 216.286 31.7657C216.449 31.5373 217.298 29.5469 215.666 28.1112Z" fill="#EDDFD3"/>
</svg>
