<svg width="300" height="468" viewBox="0 0 300 468" fill="none" xmlns="http://www.w3.org/2000/svg">
<path d="M261.984 392.344C261.984 411.58 246.911 425.611 238.063 425.611C233.148 425.611 232.165 430.222 238.063 430.222C255.758 430.222 261.204 453.248 261.656 460.525C261.984 465.794 267.227 464.476 267.227 460.525C267.227 443.727 279.024 430.222 292.786 430.222C297.702 430.222 296.391 425.611 292.786 425.611C271.815 425.611 267.227 399.44 267.227 392.345C267.227 387.405 261.984 388.392 261.984 392.344Z" stroke="#FA8CC8" stroke-opacity="0.9" stroke-width="8"/>
<path d="M31.9842 202.344C31.9842 221.58 16.9108 235.611 8.06331 235.611C3.14825 235.611 2.16504 240.222 8.06339 240.222C25.7582 240.222 31.2036 263.248 31.6564 270.525C31.9842 275.794 37.227 274.476 37.227 270.525C37.227 253.727 49.0238 240.222 62.7863 240.222C67.7017 240.222 66.391 235.611 62.7863 235.611C41.8147 235.611 37.227 209.44 37.227 202.345C37.227 197.405 31.9842 198.392 31.9842 202.344Z" stroke="#915217" stroke-opacity="0.9" stroke-width="8"/>
<path d="M160.984 7.34422C160.984 26.5796 145.911 40.6109 137.063 40.6109C132.148 40.6109 131.165 45.2215 137.063 45.2215C154.758 45.2215 160.204 68.2481 160.656 75.5249C160.984 80.7938 166.227 79.4763 166.227 75.5249C166.227 58.7269 178.024 45.2215 191.786 45.2215C196.702 45.2215 195.391 40.6109 191.786 40.6109C170.815 40.6109 166.227 14.4402 166.227 7.34532C166.227 2.40504 160.984 3.39229 160.984 7.34422Z" stroke="#09C7DE" stroke-opacity="0.9" stroke-width="8"/>
</svg>
