<svg width="302" height="475" viewBox="0 0 302 475" fill="none" xmlns="http://www.w3.org/2000/svg">
<path d="M134.984 7.34422C134.984 26.5796 119.911 40.6109 111.063 40.6109C106.148 40.6109 105.165 45.2215 111.063 45.2215C128.758 45.2215 134.204 68.2481 134.656 75.5249C134.984 80.7938 140.227 79.4763 140.227 75.5249C140.227 58.7269 152.024 45.2215 165.786 45.2215C170.702 45.2215 169.391 40.6109 165.786 40.6109C144.815 40.6109 140.227 14.4402 140.227 7.34532C140.227 2.40504 134.984 3.39229 134.984 7.34422Z" stroke="#51D34A" stroke-opacity="0.9" stroke-width="8"/>
<path d="M263.984 209.344C263.984 228.58 248.911 242.611 240.063 242.611C235.148 242.611 234.165 247.222 240.063 247.222C257.758 247.222 263.204 270.248 263.656 277.525C263.984 282.794 269.227 281.476 269.227 277.525C269.227 260.727 281.024 247.222 294.786 247.222C299.702 247.222 298.391 242.611 294.786 242.611C273.815 242.611 269.227 216.44 269.227 209.345C269.227 204.405 263.984 205.392 263.984 209.344Z" stroke="#FE7A41" stroke-opacity="0.9" stroke-width="8"/>
<path d="M31.9842 399.344C31.9842 418.58 16.9108 432.611 8.06331 432.611C3.14825 432.611 2.16504 437.222 8.06339 437.222C25.7582 437.222 31.2036 460.248 31.6564 467.525C31.9842 472.794 37.227 471.476 37.227 467.525C37.227 450.727 49.0238 437.222 62.7863 437.222C67.7017 437.222 66.391 432.611 62.7863 432.611C41.8147 432.611 37.227 406.44 37.227 399.345C37.227 394.405 31.9842 395.392 31.9842 399.344Z" stroke="#FC5353" stroke-opacity="0.9" stroke-width="8"/>
</svg>
