<svg width="66" height="296" viewBox="0 0 66 296" fill="none" xmlns="http://www.w3.org/2000/svg">
<path d="M49.4785 3.11474C49.4785 9.52653 44.373 14.2036 41.3763 14.2036C39.7115 14.2036 39.3785 15.7405 41.3763 15.7405C47.3697 15.7405 49.2141 23.416 49.3675 25.8416C49.4785 27.5979 51.2543 27.1588 51.2543 25.8416C51.2543 20.2423 55.25 15.7405 59.9115 15.7405C61.5764 15.7405 61.1324 14.2036 59.9115 14.2036C52.8082 14.2036 51.2543 5.48008 51.2543 3.11511C51.2543 1.46835 49.4785 1.79743 49.4785 3.11474Z" stroke="#09C7DE" stroke-opacity="0.9" stroke-width="3"/>
<path d="M11.4785 122.115C11.4785 128.527 6.373 133.204 3.37628 133.204C1.7115 133.204 1.37848 134.741 3.37631 134.741C9.36971 134.741 11.2141 142.416 11.3675 144.842C11.4785 146.598 13.2543 146.159 13.2543 144.842C13.2543 139.242 17.25 134.741 21.9115 134.741C23.5764 134.741 23.1324 133.204 21.9115 133.204C14.8082 133.204 13.2543 124.48 13.2543 122.115C13.2543 120.468 11.4785 120.797 11.4785 122.115Z" stroke="#915217" stroke-opacity="0.9" stroke-width="3"/>
<path d="M51.9299 268.204C51.9299 275.129 46.5812 280.18 43.4418 280.18C41.6978 280.18 41.3489 281.84 43.4419 281.84C49.7207 281.84 51.6529 290.129 51.8136 292.749C51.9299 294.646 53.7902 294.171 53.7902 292.749C53.7902 286.702 57.9762 281.84 62.8597 281.84C64.6038 281.84 64.1387 280.18 62.8597 280.18C55.4181 280.18 53.7902 270.758 53.7902 268.204C53.7902 266.426 51.9299 266.781 51.9299 268.204Z" stroke="#FA8CC8" stroke-opacity="0.9" stroke-width="3"/>
</svg>
