<svg width="550" height="550" viewBox="0 0 550 550" fill="none" xmlns="http://www.w3.org/2000/svg">
<circle cx="275" cy="275" r="275" fill="#EDDFD3"/>
<rect x="137.279" y="286.197" width="30.1137" height="171.046" rx="15.0569" fill="#4FD348" fill-opacity="0.9"/>
<path fill-rule="evenodd" clip-rule="evenodd" d="M191.483 356.061C191.483 356.061 191.483 356.061 191.483 356.061C194.896 355.659 201.119 354.832 205.335 348.231C209.766 341.293 209.412 336.762 208.949 332.572C208.346 327.128 206.539 322.936 201.119 319.322C198.015 317.253 195.035 316.5 193.149 316.313C192.042 316.203 190.924 316.311 189.811 316.311L140.289 316.311C131.974 316.311 125.232 309.569 125.232 301.254C125.232 292.938 131.974 286.197 140.289 286.197L191.483 286.197C191.483 286.197 191.483 286.197 191.483 286.197C191.483 286.197 191.483 286.197 191.483 286.197C200.517 285.795 221.115 290.293 231.233 309.083C243.88 332.572 237.893 348.231 232.437 361.481C228.221 371.72 212.562 386.174 191.483 386.174C191.483 386.174 191.483 386.174 191.483 386.175C191.483 386.175 191.483 386.175 191.483 386.175H152.335C144.019 386.175 137.278 379.433 137.278 371.118C137.278 362.802 144.019 356.061 152.335 356.061H191.483C191.483 356.061 191.483 356.061 191.483 356.061Z" fill="#4FD348" fill-opacity="0.8"/>
<rect x="394.767" y="286.173" width="30.1137" height="171.046" rx="15.0569" fill="#FF75C0" fill-opacity="0.8"/>
<path fill-rule="evenodd" clip-rule="evenodd" d="M370.676 457.218C400.612 457.218 424.881 432.95 424.881 403.014C424.881 373.077 400.612 348.809 370.676 348.809C340.739 348.809 316.471 373.077 316.471 403.014C316.471 432.95 340.739 457.218 370.676 457.218ZM370.676 427.105C383.981 427.105 394.767 416.319 394.767 403.014C394.767 389.709 383.981 378.923 370.676 378.923C357.371 378.923 346.585 389.709 346.585 403.014C346.585 416.319 357.371 427.105 370.676 427.105Z" fill="#FF75C0" fill-opacity="0.9"/>
<rect x="249.078" y="348.81" width="30.1137" height="108.409" rx="15.0569" fill="#05C7DE" fill-opacity="0.9"/>
<path fill-rule="evenodd" clip-rule="evenodd" d="M305.77 352.253C301.304 350.456 295.8 349.206 289.425 349.412C270.754 350.014 259.311 365.673 255.697 372.298C252.084 378.923 249.675 387.355 249.072 396.991C248.907 399.64 251.201 400.99 254.698 401.515C251.268 404.275 249.073 408.508 249.073 413.253V442.162C249.073 450.478 255.814 457.219 264.13 457.219C272.445 457.219 279.186 450.478 279.186 442.162V413.253C279.186 407.705 276.186 402.859 271.72 400.246C276.229 398.613 279.186 394.139 279.186 389.162C279.186 385.95 281.233 379.405 289.425 378.923C290.501 378.769 291.63 378.675 292.77 378.579C296.602 378.257 300.565 377.925 303.112 375.303L307.616 370.666C313.359 364.754 313.416 355.33 305.77 352.253Z" fill="#05C7DE" fill-opacity="0.8"/>
<rect x="117.779" y="93.6758" width="30.1137" height="171.046" rx="15.0569" fill="#884100" fill-opacity="0.9"/>
<rect x="202.097" y="93.6746" width="30.1137" height="171.046" rx="15.0569" fill="#884100" fill-opacity="0.9"/>
<rect x="117.778" y="164.743" width="114.432" height="28.9092" fill="#884100" fill-opacity="0.8"/>
<rect x="344.954" y="93.0269" width="30.1137" height="171.046" rx="15.0569" fill="#FE7A41" fill-opacity="0.9"/>
<path d="M402.771 172.527V168.311C402.771 168.311 402.771 152.652 417.527 152.652C432.283 152.652 432.283 168.311 432.283 168.311V174.333C432.283 186.861 425.055 197.22 421.442 200.834C430.115 208.543 432.283 221.311 432.283 226.731V251.425C432.283 251.425 432.283 264.675 417.226 264.675C402.169 264.675 402.169 251.425 402.169 251.425V227.334C401.968 223.318 398.917 215.288 388.317 215.288C377.717 215.288 374.665 222.917 374.464 226.731V250.822C374.464 250.822 373.863 264.072 360.01 264.675C346.157 265.277 344.952 251.425 344.952 251.425V227.334C344.952 211.072 353.385 202.038 360.01 196.015C369.099 187.752 377.476 185.777 390.726 185.777C400.362 184.813 402.771 176.542 402.771 172.527Z" fill="#FE7A41" fill-opacity="0.8"/>
<path fill-rule="evenodd" clip-rule="evenodd" d="M322.039 260.607C315.303 263.609 307.842 265.278 299.992 265.278C270.055 265.278 245.787 241.01 245.787 211.073C245.787 181.137 270.055 156.869 299.992 156.869C308.448 156.869 316.452 158.805 323.584 162.258L323.481 162.289C328.499 165.1 333.117 174.334 326.492 182.164C323.74 185.416 321.148 187.016 316.856 188.187C312.675 189.327 309.453 188.548 306.434 187.819C304.669 187.392 302.974 186.982 301.196 186.982L301.208 187.013C300.805 186.993 300.4 186.983 299.992 186.983C286.687 186.983 275.901 197.769 275.901 211.074C275.901 224.379 286.687 235.165 299.992 235.165C300.393 235.165 300.791 235.155 301.187 235.135L301.197 235.164C303.633 235.164 305.553 234.617 307.379 234.096C309.616 233.458 311.713 232.86 314.447 233.358C321.072 234.562 324.146 238.066 325.89 240.585C331.311 248.414 328.299 256.846 322.277 260.46C322.194 260.51 322.114 260.559 322.039 260.607Z" fill="#FF4242" fill-opacity="0.9"/>
</svg>
