<svg width="344" height="197" viewBox="0 0 344 197" fill="none" xmlns="http://www.w3.org/2000/svg">
<mask id="mask0_848_95" style="mask-type:alpha" maskUnits="userSpaceOnUse" x="0" y="0" width="344" height="197">
<rect width="344" height="197" fill="#C4C4C4"/>
</mask>
<g mask="url(#mask0_848_95)">
<path d="M-83.4279 182.009C-77.622 150.414 -48.3556 81.9206 19.8672 91.3839C27.7705 60.7195 71.1578 15.7897 149.935 27.6392C228.713 39.4887 252.059 92.5995 250.382 123.359C282.706 125.217 328.256 155.052 326.609 238.886" stroke="#FD81C3" stroke-width="10" stroke-linecap="round"/>
<path d="M-39.2751 188.618C-35.0273 165.501 -11.1117 121.407 50.5683 129.962C56.3544 107.528 82.3692 64.8296 140.14 73.5177C197.91 82.2058 209.912 129.39 208.691 151.896C232.394 153.263 279.505 171.332 278.323 232.673" stroke="#FF7A41" stroke-width="10" stroke-linecap="round"/>
<path d="M11.0181 195.594C13.9135 179.836 33.4816 166.739 75.717 172.597C79.666 157.305 95.7876 114.37 135.346 120.317C174.905 126.265 171.307 170.4 170.484 185.743C186.714 186.685 233.065 186.65 232.29 228.467" stroke="#8A0404" stroke-width="10" stroke-linecap="round"/>
</g>
</svg>
