<svg viewBox="0 0 58 296" fill="none" xmlns="http://www.w3.org/2000/svg">
<path d="M23.0671 3.20306C23.0671 10.1229 17.6446 15.1705 14.4617 15.1705C12.6936 15.1705 12.3399 16.8292 14.4618 16.8292C20.8274 16.8292 22.7863 25.1128 22.9492 27.7306C23.0671 29.626 24.9532 29.1521 24.9532 27.7306C24.9532 21.6876 29.197 16.8292 34.148 16.8292C35.9162 16.8292 35.4447 15.1705 34.148 15.1705C26.6036 15.1705 24.9532 5.7558 24.9532 3.20346C24.9532 1.42622 23.0671 1.78138 23.0671 3.20306Z" stroke="#51D34A" stroke-opacity="0.9" stroke-width="3"/>
<path d="M44.0671 123.203C44.0671 130.123 38.6446 135.17 35.4617 135.17C33.6936 135.17 33.3399 136.829 35.4618 136.829C41.8274 136.829 43.7863 145.113 43.9492 147.731C44.0671 149.626 45.9532 149.152 45.9532 147.731C45.9532 141.688 50.197 136.829 55.148 136.829C56.9162 136.829 56.4447 135.17 55.148 135.17C47.6036 135.17 45.9532 125.756 45.9532 123.203C45.9532 121.426 44.0671 121.781 44.0671 123.203Z" stroke="#FE7A41" stroke-opacity="0.9" stroke-width="3"/>
<path d="M12.0671 268.203C12.0671 275.123 6.64457 280.17 3.46176 280.17C1.6936 280.17 1.33989 281.829 3.46179 281.829C9.82737 281.829 11.7863 290.113 11.9492 292.731C12.0671 294.626 13.9532 294.152 13.9532 292.731C13.9532 286.688 18.197 281.829 23.148 281.829C24.9162 281.829 24.4447 280.17 23.148 280.17C15.6036 280.17 13.9532 270.756 13.9532 268.203C13.9532 266.426 12.0671 266.781 12.0671 268.203Z" stroke="#FC5353" stroke-opacity="0.9" stroke-width="3"/>
</svg>
